<svg xmlns="http://www.w3.org/2000/svg" width="32" height="32" viewBox="0 0 32 32">
  <circle cx="16" cy="16" r="16" fill="#8247E5"/>
  <path fill="#fff" d="M21.092 12.693c-.369-.215-.848-.215-1.254 0l-2.879 1.654-1.955 1.078-2.879 1.653c-.369.216-.848.216-1.254 0l-2.288-1.294c-.369-.215-.627-.61-.627-1.042V12.19c0-.431.221-.826.627-1.042l2.25-1.258c.37-.216.85-.216 1.256 0l2.25 1.258c.37.216.628.611.628 1.042v1.654l1.955-1.115v-1.653a1.142 1.142 0 00-.627-1.042L13.55 7.411c-.369-.216-.848-.216-1.254 0L9.155 9.034c-.369.215-.627.61-.627 1.042v4.553c0 .431.221.826.627 1.042l3.142 1.796c.369.215.848.215 1.254 0l2.879-1.617 1.955-1.115 2.879-1.617c.369-.215.848-.215 1.254 0l2.251 1.258c.37.215.627.61.627 1.042v2.553c0 .431-.22.826-.627 1.042l-2.25 1.294c-.37.216-.85.216-1.256 0l-2.25-1.258c-.37-.216-.628-.611-.628-1.042v-1.654l-1.955 1.116v1.653c0 .431.221.827.627 1.042l3.142 1.796c.369.215.848.215 1.254 0l3.142-1.796c.369-.215.627-.61.627-1.042v-4.552c0-.432-.22-.827-.627-1.043l-3.18-1.832z"/>
</svg>
