<svg xmlns="http://www.w3.org/2000/svg" width="32" height="32" viewBox="0 0 32 32">
  <circle cx="16" cy="16" r="16" fill="#FF007A"/>
  <path fill="#fff" d="M11.334 10.578a2.576 2.576 0 11-5.153 0 2.576 2.576 0 015.153 0zm2.98 0a5.557 5.557 0 01-11.108 0 5.557 5.557 0 0111.108 0zM16.89 22.1c-.47-.153-.87-.555-.87-1.089v-1.506c0-1.093.726-1.859 1.789-1.859 1.29 0 2.086.726 2.086 1.738 0 1.213-.806 2.179-2.086 2.179-.33 0-.64-.06-.92-.153v.69zm-.87 1.435V25h2.86c2.8 0 4.71-1.87 4.71-4.29 0-2.54-1.86-4.23-4.56-4.23-2.91 0-4.98 2.07-4.98 4.95v1.82c0 .16.13.29.28.29h1.69z"/>
</svg>
