<svg xmlns="http://www.w3.org/2000/svg" width="32" height="32" viewBox="0 0 32 32">
  <circle cx="16" cy="16" r="16" fill="#2775CA"/>
  <path fill="#fff" d="M21.6 18.2c0-1.88-1.13-2.52-3.4-2.79-1.62-.2-1.95-.6-1.95-1.3 0-.7.47-1.16 1.45-1.16.88 0 1.35.34 1.58 1.17.05.17.2.28.37.28h.86c.21 0 .37-.17.37-.38v-.06c-.2-1.23-1.03-2.17-2.31-2.43v-1.38c0-.21-.17-.38-.42-.42h-.8c-.21 0-.38.17-.42.38v1.33c-1.51.25-2.5 1.32-2.5 2.62 0 1.79 1.12 2.45 3.4 2.72 1.53.22 1.95.54 1.95 1.35s-.68 1.37-1.62 1.37c-1.26 0-1.72-.54-1.87-1.26a.39.39 0 00-.38-.3h-.93a.37.37 0 00-.37.38v.05c.21 1.39 1.05 2.39 2.77 2.68v1.38c0 .21.17.42.42.42h.8c.21 0 .42-.17.42-.38v-1.33c1.55-.25 2.58-1.36 2.58-2.74z"/>
  <path fill="#fff" d="M13.12 24.13c-4.64-1.67-7.04-6.83-5.37-11.43a8.546 8.546 0 015.37-5.35.4.4 0 00.26-.4V6.1c0-.17-.13-.3-.26-.34-.05 0-.13 0-.17.04-5.64 1.92-8.65 8.04-6.73 13.68a10.7 10.7 0 006.73 6.73c.13.04.3-.04.34-.17.04-.05.04-.13.04-.17v-.85c0-.21-.13-.34-.21-.43zm5.93-16.78c.13-.04.3.04.34.17.04.04.04.12.04.17v.84c0 .17-.13.34-.26.43 4.64 1.67 7.04 6.83 5.36 11.43a8.545 8.545 0 01-5.36 5.35.4.4 0 00-.26.43v.84c0 .21.17.34.38.38.04 0 .13 0 .17-.04 5.64-1.92 8.65-8.04 6.73-13.68a10.7 10.7 0 00-6.73-6.72c-.13-.05-.26.04-.34.17-.04.04-.08.12-.08.17v.84c0 .17.1.34.21.43 0-.04 0-.04-.01-.04v-.17z"/>
</svg>
