<svg xmlns="http://www.w3.org/2000/svg" width="32" height="32" viewBox="0 0 32 32">
  <circle cx="16" cy="16" r="16" fill="#F7931A"/>
  <path fill="#fff" d="M22.5 14.04c.3-2.02-1.24-3.1-3.35-3.82l.68-2.75-1.67-.42-.67 2.68c-.44-.11-.89-.21-1.34-.32l.67-2.7-1.67-.41-.69 2.74c-.36-.08-.72-.17-1.07-.25l-2.3-.58-.44 1.78s1.24.28 1.21.3c.68.17.8.62.78.98l-.78 3.15c.05.01.11.03.18.06l-.18-.05-1.1 4.41c-.08.2-.29.51-.76.39.02.03-1.22-.3-1.22-.3l-.83 1.91 2.17.54c.4.1.8.21 1.19.31l-.7 2.8 1.67.42.69-2.75c.46.12.9.24 1.34.35l-.68 2.73 1.67.42.7-2.79c2.86.54 5.01.32 5.92-2.27.73-2.08-.04-3.28-1.54-4.07 1.1-.25 1.92-.97 2.14-2.46zm-3.83 5.37c-.52 2.08-4.03.96-5.17.67l.92-3.69c1.14.28 4.8.85 4.25 3.02zm.52-5.4c-.47 1.9-3.4.93-4.35.7l.84-3.35c.95.24 4.01.68 3.51 2.65z"/>
</svg>
