<svg xmlns="http://www.w3.org/2000/svg" width="32" height="32" viewBox="0 0 32 32">
  <circle cx="16" cy="16" r="16" fill="#EC1C79"/>
  <circle cx="16" cy="16" r="12" fill="#8247E5"/>
  <path fill="#fff" d="M19.092 13.693c-.269-.165-.618-.165-.914 0l-2.099 1.204-1.425.785-2.099 1.204c-.269.157-.618.157-.914 0l-1.668-.943c-.269-.157-.457-.444-.457-.759v-1.828c0-.314.161-.602.457-.759l1.64-.916c.27-.157.62-.157.916 0l1.64.916c.27.157.458.444.458.759v1.204l1.424-.812v-1.204a.832.832 0 00-.457-.759l-2.29-1.306c-.27-.157-.62-.157-.915 0l-2.347 1.306c-.269.157-.457.444-.457.759v2.62c0 .314.161.602.457.759l2.29 1.306c.269.157.619.157.914 0l2.1-1.178 1.424-.812 2.1-1.178c.268-.157.618-.157.914 0l1.641.916c.27.157.457.444.457.759v1.862c0 .314-.16.602-.457.759l-1.64.943c-.27.157-.62.157-.916 0l-1.64-.916c-.27-.157-.458-.444-.458-.759v-1.204l-1.424.812v1.204c0 .314.161.602.457.759l2.29 1.306c.269.157.618.157.914 0l2.29-1.306c.269-.157.457-.444.457-.759v-2.62c0-.315-.16-.603-.457-.76l-2.318-1.334z"/>
</svg>
